<?xml version="1.0" encoding="UTF-8" standalone="no"?>
<svg width="736px" height="164px" viewBox="0 0 736 164" version="1.1" xmlns="http://www.w3.org/2000/svg" xmlns:xlink="http://www.w3.org/1999/xlink">
    <!-- Generator: Sketch 3.7.2 (28276) - http://www.bohemiancoding.com/sketch -->
    <title>modules_yaml_files1</title>
    <desc>Created with Sketch.</desc>
    <defs>
        <rect id="path-1" x="0" y="0" width="129" height="32" rx="2"></rect>
        <mask id="mask-2" maskContentUnits="userSpaceOnUse" maskUnits="objectBoundingBox" x="0" y="0" width="129" height="32" fill="white">
            <use xlink:href="#path-1"></use>
        </mask>
        <rect id="path-3" x="0" y="0" width="104" height="32" rx="2"></rect>
        <mask id="mask-4" maskContentUnits="userSpaceOnUse" maskUnits="objectBoundingBox" x="0" y="0" width="104" height="32" fill="white">
            <use xlink:href="#path-3"></use>
        </mask>
        <rect id="path-5" x="0" y="0" width="104" height="32" rx="2"></rect>
        <mask id="mask-6" maskContentUnits="userSpaceOnUse" maskUnits="objectBoundingBox" x="0" y="0" width="104" height="32" fill="white">
            <use xlink:href="#path-5"></use>
        </mask>
        <rect id="path-7" x="0" y="0" width="104" height="32" rx="2"></rect>
        <mask id="mask-8" maskContentUnits="userSpaceOnUse" maskUnits="objectBoundingBox" x="0" y="0" width="104" height="32" fill="white">
            <use xlink:href="#path-7"></use>
        </mask>
        <rect id="path-9" x="0" y="0" width="104" height="32" rx="2"></rect>
        <mask id="mask-10" maskContentUnits="userSpaceOnUse" maskUnits="objectBoundingBox" x="0" y="0" width="104" height="32" fill="white">
            <use xlink:href="#path-9"></use>
        </mask>
    </defs>
    <g id="Page-1" stroke="none" stroke-width="1" fill="none" fill-rule="evenodd">
        <g id="modules_yaml_files1">
            <g id="Group" transform="translate(303.000000, 32.000000)">
                <use id="Rectangle-1759" stroke="#E0E0E0" mask="url(#mask-2)" stroke-width="2" fill="#03A9F4" xlink:href="#path-1"></use>
                <path d="M47.7685547,16.3027344 L51.2255859,17.6152344 L51.2255859,19.0390625 L46.3212891,16.8535156 L46.3212891,15.7226562 L51.2255859,13.5429688 L51.2255859,14.9667969 L47.7685547,16.3027344 Z M56.5693359,20 C56.5068356,19.8789056 56.4521487,19.681642 56.4052734,19.4082031 C55.9521462,19.8808617 55.3974642,20.1171875 54.7412109,20.1171875 C54.104489,20.1171875 53.5849629,19.9355487 53.1826172,19.5722656 C52.7802714,19.2089826 52.5791016,18.7597683 52.5791016,18.2246094 C52.5791016,17.5488247 52.8300756,17.0302752 53.3320312,16.6689453 C53.8339869,16.3076154 54.5517531,16.1269531 55.4853516,16.1269531 L56.3583984,16.1269531 L56.3583984,15.7109375 C56.3583984,15.3828109 56.2666025,15.1201182 56.0830078,14.9228516 C55.8994131,14.725585 55.6201191,14.6269531 55.2451172,14.6269531 C54.9208968,14.6269531 54.6552745,14.708007 54.4482422,14.8701172 C54.2412099,15.0322274 54.1376953,15.23828 54.1376953,15.4882812 L52.7138672,15.4882812 C52.7138672,15.1406233 52.8291004,14.8154312 53.0595703,14.5126953 C53.2900402,14.2099594 53.6035136,13.9726571 54,13.8007812 C54.3964864,13.6289054 54.8388647,13.5429688 55.3271484,13.5429688 C56.0693396,13.5429688 56.6611306,13.7294903 57.1025391,14.1025391 C57.5439475,14.4755878 57.7705078,14.9999966 57.7822266,15.6757812 L57.7822266,18.5351562 C57.7822266,19.1054716 57.8623039,19.5605452 58.0224609,19.9003906 L58.0224609,20 L56.5693359,20 Z M55.0048828,18.9746094 C55.2861342,18.9746094 55.55078,18.9062507 55.7988281,18.7695312 C56.0468762,18.6328118 56.2333978,18.4492199 56.3583984,18.21875 L56.3583984,17.0234375 L55.5908203,17.0234375 C55.0634739,17.0234375 54.6669935,17.1152335 54.4013672,17.2988281 C54.1357409,17.4824228 54.0029297,17.7421858 54.0029297,18.078125 C54.0029297,18.3515639 54.0937491,18.5693351 54.2753906,18.7314453 C54.4570322,18.8935555 54.7001938,18.9746094 55.0048828,18.9746094 L55.0048828,18.9746094 Z M64.8251953,16.8945312 C64.8251953,17.8750049 64.6025413,18.6572236 64.1572266,19.2412109 C63.7119118,19.8251982 63.1142616,20.1171875 62.3642578,20.1171875 C61.6689418,20.1171875 61.1123068,19.8886742 60.6943359,19.4316406 L60.6943359,22.4375 L59.2705078,22.4375 L59.2705078,13.6601562 L60.5830078,13.6601562 L60.6416016,14.3046875 C61.0595724,13.7968725 61.6279261,13.5429688 62.3466797,13.5429688 C63.1201211,13.5429688 63.7265603,13.8310518 64.1660156,14.4072266 C64.6054709,14.9834013 64.8251953,15.783198 64.8251953,16.8066406 L64.8251953,16.8945312 Z M63.4072266,16.7714844 C63.4072266,16.1386687 63.2812513,15.6367206 63.0292969,15.265625 C62.7773425,14.8945294 62.4169945,14.7089844 61.9482422,14.7089844 C61.366208,14.7089844 60.9482435,14.9492163 60.6943359,15.4296875 L60.6943359,18.2421875 C60.9521497,18.7343775 61.3740205,18.9804688 61.9599609,18.9804688 C62.4130882,18.9804688 62.7675768,18.7978534 63.0234375,18.4326172 C63.2792982,18.067381 63.4072266,17.5136756 63.4072266,16.7714844 L63.4072266,16.7714844 Z M71.5810547,16.8945312 C71.5810547,17.8750049 71.3584007,18.6572236 70.9130859,19.2412109 C70.4677712,19.8251982 69.8701209,20.1171875 69.1201172,20.1171875 C68.4248012,20.1171875 67.8681662,19.8886742 67.4501953,19.4316406 L67.4501953,22.4375 L66.0263672,22.4375 L66.0263672,13.6601562 L67.3388672,13.6601562 L67.3974609,14.3046875 C67.8154318,13.7968725 68.3837855,13.5429688 69.1025391,13.5429688 C69.8759804,13.5429688 70.4824197,13.8310518 70.921875,14.4072266 C71.3613303,14.9834013 71.5810547,15.783198 71.5810547,16.8066406 L71.5810547,16.8945312 Z M70.1630859,16.7714844 C70.1630859,16.1386687 70.0371106,15.6367206 69.7851562,15.265625 C69.5332019,14.8945294 69.1728539,14.7089844 68.7041016,14.7089844 C68.1220674,14.7089844 67.7041028,14.9492163 67.4501953,15.4296875 L67.4501953,18.2421875 C67.7080091,18.7343775 68.1298799,18.9804688 68.7158203,18.9804688 C69.1689476,18.9804688 69.5234362,18.7978534 69.7792969,18.4326172 C70.0351575,18.067381 70.1630859,17.5136756 70.1630859,16.7714844 L70.1630859,16.7714844 Z M76.4267578,16.2734375 L72.8056641,14.9433594 L72.8056641,13.5429688 L77.8681641,15.7226562 L77.8681641,16.8535156 L72.8056641,19.0332031 L72.8056641,17.6328125 L76.4267578,16.2734375 Z M79.4326172,20.7324219 L78.3134766,20.7324219 L81.6708984,11.46875 L82.7900391,11.46875 L79.4326172,20.7324219 Z" id="&lt;app&gt;/" fill="#FFFFFF"></path>
            </g>
            <g id="Page-1" transform="translate(194.000000, 64.000000)" stroke="#616161">
                <g id="Group-12">
                    <path d="M174,0 L174,16" id="Stroke-4"></path>
                    <polyline id="Stroke-6" points="348.2618 32 348.2618 16 -0.0002 16 -0.0002 32"></polyline>
                </g>
                <g id="Group-32" transform="translate(116.000000, 16.000000)">
                    <path d="M116,16 L116,0" id="Stroke-28"></path>
                    <path d="M0,16 L0,0" id="Stroke-30"></path>
                </g>
            </g>
            <g id="Group-2" transform="translate(489.799988, 100.000000)">
                <use id="Rectangle-1765" stroke="#E0E0E0" mask="url(#mask-4)" stroke-width="2" fill="#FFFFFF" xlink:href="#path-3"></use>
                <path d="M16.1113281,13.6601562 L16.140625,14.3632812 C16.6054711,13.8164035 17.2324179,13.5429688 18.0214844,13.5429688 C18.9082076,13.5429688 19.5117171,13.8828091 19.8320312,14.5625 C20.0429698,14.257811 20.3173811,14.0117197 20.6552734,13.8242188 C20.9931658,13.6367178 21.3925758,13.5429688 21.8535156,13.5429688 C23.2441476,13.5429688 23.9511718,14.2792895 23.9746094,15.7519531 L23.9746094,20 L22.890625,20 L22.890625,15.8164062 C22.890625,15.363279 22.7871104,15.0244152 22.5800781,14.7998047 C22.3730458,14.5751942 22.0253931,14.4628906 21.5371094,14.4628906 C21.1347636,14.4628906 20.8007826,14.5830066 20.5351562,14.8232422 C20.2695299,15.0634778 20.1152346,15.3867167 20.0722656,15.7929688 L20.0722656,20 L18.9824219,20 L18.9824219,15.8457031 C18.9824219,14.9238235 18.5312545,14.4628906 17.6289062,14.4628906 C16.9179652,14.4628906 16.4316419,14.765622 16.1699219,15.3710938 L16.1699219,20 L15.0859375,20 L15.0859375,13.6601562 L16.1113281,13.6601562 Z M25.3222656,16.7714844 C25.3222656,16.1503875 25.4443347,15.5917994 25.6884766,15.0957031 C25.9326184,14.5996069 26.2724588,14.2167982 26.7080078,13.9472656 C27.1435569,13.677733 27.6406222,13.5429688 28.1992188,13.5429688 C29.0625043,13.5429688 29.7607395,13.8417939 30.2939453,14.4394531 C30.8271511,15.0371124 31.09375,15.8320263 31.09375,16.8242188 L31.09375,16.9003906 C31.09375,17.5175812 30.9755871,18.0712866 30.7392578,18.5615234 C30.5029285,19.0517603 30.1650413,19.4335924 29.7255859,19.7070312 C29.2861306,19.9804701 28.7812529,20.1171875 28.2109375,20.1171875 C27.3515582,20.1171875 26.6552761,19.8183624 26.1220703,19.2207031 C25.5888645,18.6230439 25.3222656,17.8320362 25.3222656,16.8476562 L25.3222656,16.7714844 Z M26.4121094,16.9003906 C26.4121094,17.6035191 26.5751937,18.1679666 26.9013672,18.59375 C27.2275407,19.0195334 27.6640598,19.2324219 28.2109375,19.2324219 C28.7617215,19.2324219 29.1992171,19.0166037 29.5234375,18.5849609 C29.8476579,18.1533182 30.0097656,17.548832 30.0097656,16.7714844 C30.0097656,16.0761684 29.8447282,15.5126975 29.5146484,15.0810547 C29.1845687,14.6494119 28.7460965,14.4335938 28.1992188,14.4335938 C27.6640598,14.4335938 27.2324235,14.6464822 26.9042969,15.0722656 C26.5761702,15.498049 26.4121094,16.1074179 26.4121094,16.9003906 L26.4121094,16.9003906 Z M32.1894531,16.7773438 C32.1894531,15.8046826 32.4199196,15.0224639 32.8808594,14.4306641 C33.3417992,13.8388642 33.9453088,13.5429688 34.6914062,13.5429688 C35.4335975,13.5429688 36.0214822,13.7968725 36.4550781,14.3046875 L36.4550781,11 L37.5390625,11 L37.5390625,20 L36.5429688,20 L36.4902344,19.3203125 C36.0566385,19.8515652 35.4531289,20.1171875 34.6796875,20.1171875 C33.9453088,20.1171875 33.346682,19.8164093 32.8837891,19.2148438 C32.4208961,18.6132782 32.1894531,17.8281298 32.1894531,16.859375 L32.1894531,16.7773438 Z M33.2734375,16.9003906 C33.2734375,17.6191442 33.4218735,18.1816386 33.71875,18.5878906 C34.0156265,18.9941427 34.4257786,19.1972656 34.9492188,19.1972656 C35.6367222,19.1972656 36.1386703,18.888675 36.4550781,18.2714844 L36.4550781,15.359375 C36.1308578,14.7617158 35.6328159,14.4628906 34.9609375,14.4628906 C34.4296848,14.4628906 34.0156265,14.6679667 33.71875,15.078125 C33.4218735,15.4882833 33.2734375,16.0956991 33.2734375,16.9003906 L33.2734375,16.9003906 Z M43.1347656,19.3730469 C42.7128885,19.8691431 42.0937541,20.1171875 41.2773438,20.1171875 C40.6015591,20.1171875 40.0869158,19.9209004 39.7333984,19.5283203 C39.379881,19.1357402 39.2011719,18.5546913 39.1972656,17.7851562 L39.1972656,13.6601562 L40.28125,13.6601562 L40.28125,17.7558594 C40.28125,18.7168017 40.6718711,19.1972656 41.453125,19.1972656 C42.2812541,19.1972656 42.8320299,18.888675 43.1054688,18.2714844 L43.1054688,13.6601562 L44.1894531,13.6601562 L44.1894531,20 L43.1582031,20 L43.1347656,19.3730469 Z M47.0136719,20 L45.9296875,20 L45.9296875,11 L47.0136719,11 L47.0136719,20 Z M51.3789062,20.1171875 C50.519527,20.1171875 49.8203152,19.8349638 49.28125,19.2705078 C48.7421848,18.7060519 48.4726562,17.9511766 48.4726562,17.0058594 L48.4726562,16.8066406 C48.4726562,16.1777312 48.5927722,15.6162134 48.8330078,15.1220703 C49.0732434,14.6279272 49.4091775,14.2412123 49.8408203,13.9619141 C50.2724631,13.6826158 50.7402319,13.5429688 51.2441406,13.5429688 C52.0683635,13.5429688 52.7089821,13.8144504 53.1660156,14.3574219 C53.6230492,14.9003933 53.8515625,15.6777293 53.8515625,16.6894531 L53.8515625,17.140625 L49.5566406,17.140625 C49.5722657,17.7656281 49.7548811,18.2705059 50.1044922,18.6552734 C50.4541033,19.040041 50.8984348,19.2324219 51.4375,19.2324219 C51.8203144,19.2324219 52.1445299,19.1542977 52.4101562,18.9980469 C52.6757826,18.8417961 52.9082021,18.6347669 53.1074219,18.3769531 L53.7695312,18.8925781 C53.2382786,19.7089885 52.4414116,20.1171875 51.3789062,20.1171875 L51.3789062,20.1171875 Z M51.2441406,14.4335938 C50.8066384,14.4335938 50.4394546,14.5927718 50.1425781,14.9111328 C49.8457016,15.2294938 49.6621097,15.6757784 49.5917969,16.25 L52.7675781,16.25 L52.7675781,16.1679688 C52.736328,15.6171847 52.587892,15.1904312 52.3222656,14.8876953 C52.0566393,14.5849594 51.6972679,14.4335938 51.2441406,14.4335938 L51.2441406,14.4335938 Z M60.5839844,20 L54.9941406,20 L54.9941406,19.2207031 L57.9472656,15.9394531 C58.3847678,15.4433569 58.6865226,15.0400406 58.8525391,14.7294922 C59.0185555,14.4189438 59.1015625,14.0976579 59.1015625,13.765625 C59.1015625,13.3203103 58.9667982,12.9550796 58.6972656,12.6699219 C58.427733,12.3847642 58.0683616,12.2421875 57.6191406,12.2421875 C57.0800754,12.2421875 56.6611343,12.3955063 56.3623047,12.7021484 C56.0634751,13.0087906 55.9140625,13.4355441 55.9140625,13.9824219 L54.8300781,13.9824219 C54.8300781,13.1972617 55.0830053,12.5625024 55.5888672,12.078125 C56.0947291,11.5937476 56.7714801,11.3515625 57.6191406,11.3515625 C58.4121133,11.3515625 59.0390602,11.5595682 59.5,11.9755859 C59.9609398,12.3916036 60.1914062,12.945309 60.1914062,13.6367188 C60.1914062,14.4765667 59.6562554,15.4765567 58.5859375,16.6367188 L56.3007812,19.1152344 L60.5839844,19.1152344 L60.5839844,20 Z M61.8671875,19.4316406 C61.8671875,19.2441397 61.922851,19.0878912 62.0341797,18.9628906 C62.1455084,18.83789 62.3124989,18.7753906 62.5351562,18.7753906 C62.7578136,18.7753906 62.9267572,18.83789 63.0419922,18.9628906 C63.1572271,19.0878912 63.2148438,19.2441397 63.2148438,19.4316406 C63.2148438,19.611329 63.1572271,19.7617181 63.0419922,19.8828125 C62.9267572,20.0039069 62.7578136,20.0644531 62.5351562,20.0644531 C62.3124989,20.0644531 62.1455084,20.0039069 62.0341797,19.8828125 C61.922851,19.7617181 61.8671875,19.611329 61.8671875,19.4316406 L61.8671875,19.4316406 Z M67.0761719,18.4121094 L68.5527344,13.6601562 L69.7128906,13.6601562 L67.1640625,20.9785156 C66.7695293,22.0332084 66.1425824,22.5605469 65.2832031,22.5605469 L65.078125,22.5429688 L64.6738281,22.4667969 L64.6738281,21.5878906 L64.9667969,21.6113281 C65.3339862,21.6113281 65.6201162,21.5371101 65.8251953,21.3886719 C66.0302745,21.2402336 66.1992181,20.968752 66.3320313,20.5742188 L66.5722656,19.9296875 L64.3105469,13.6601562 L65.4941406,13.6601562 L67.0761719,18.4121094 Z M74.5058594,20 C74.4433591,19.8749994 74.3925783,19.6523454 74.3535156,19.3320312 C73.8496069,19.8554714 73.2480504,20.1171875 72.5488281,20.1171875 C71.923825,20.1171875 71.4111348,19.9404315 71.0107422,19.5869141 C70.6103496,19.2333967 70.4101562,18.785159 70.4101562,18.2421875 C70.4101562,17.5820279 70.6611303,17.0693378 71.1630859,16.7041016 C71.6650416,16.3388654 72.3710892,16.15625 73.28125,16.15625 L74.3359375,16.15625 L74.3359375,15.6582031 C74.3359375,15.279295 74.2226574,14.9775402 73.9960938,14.7529297 C73.7695301,14.5283192 73.4355491,14.4160156 72.9941406,14.4160156 C72.6074199,14.4160156 72.2832044,14.5136709 72.0214844,14.7089844 C71.7597643,14.9042979 71.6289062,15.1406236 71.6289062,15.4179688 L70.5390625,15.4179688 C70.5390625,15.1015609 70.6513661,14.7958999 70.8759766,14.5009766 C71.1005871,14.2060532 71.4052715,13.9726571 71.7900391,13.8007812 C72.1748066,13.6289054 72.5976539,13.5429688 73.0585938,13.5429688 C73.7890662,13.5429688 74.3613261,13.7255841 74.7753906,14.0908203 C75.1894552,14.4560565 75.4042968,14.9589812 75.4199219,15.5996094 L75.4199219,18.5175781 C75.4199219,19.0996123 75.4941399,19.5624983 75.6425781,19.90625 L75.6425781,20 L74.5058594,20 Z M72.7070313,19.1738281 C73.0468767,19.1738281 73.3691391,19.0859384 73.6738281,18.9101562 C73.9785171,18.7343741 74.1992181,18.5058608 74.3359375,18.2246094 L74.3359375,16.9238281 L73.4863281,16.9238281 C72.1581965,16.9238281 71.4941406,17.3124961 71.4941406,18.0898438 C71.4941406,18.4296892 71.6074207,18.6953115 71.8339844,18.8867188 C72.060548,19.078126 72.3515607,19.1738281 72.7070313,19.1738281 L72.7070313,19.1738281 Z M78.1386719,13.6601562 L78.1679688,14.3632812 C78.6328148,13.8164035 79.2597617,13.5429688 80.0488281,13.5429688 C80.9355513,13.5429688 81.5390609,13.8828091 81.859375,14.5625 C82.0703136,14.257811 82.3447249,14.0117197 82.6826172,13.8242188 C83.0205095,13.6367178 83.4199196,13.5429688 83.8808594,13.5429688 C85.2714913,13.5429688 85.9785155,14.2792895 86.0019531,15.7519531 L86.0019531,20 L84.9179688,20 L84.9179688,15.8164062 C84.9179688,15.363279 84.8144542,15.0244152 84.6074219,14.7998047 C84.4003896,14.5751942 84.0527368,14.4628906 83.5644531,14.4628906 C83.1621074,14.4628906 82.8281263,14.5830066 82.5625,14.8232422 C82.2968737,15.0634778 82.1425783,15.3867167 82.0996094,15.7929688 L82.0996094,20 L81.0097656,20 L81.0097656,15.8457031 C81.0097656,14.9238235 80.5585983,14.4628906 79.65625,14.4628906 C78.9453089,14.4628906 78.4589857,14.765622 78.1972656,15.3710938 L78.1972656,20 L77.1132812,20 L77.1132812,13.6601562 L78.1386719,13.6601562 Z M88.8144531,20 L87.7304688,20 L87.7304688,11 L88.8144531,11 L88.8144531,20 Z" id="module2.yaml" fill="#212121"></path>
            </g>
            <g id="Group-2" transform="translate(374.000000, 100.000000)">
                <use id="Rectangle-1765" stroke="#E0E0E0" mask="url(#mask-6)" stroke-width="2" fill="#FFFFFF" xlink:href="#path-5"></use>
                <path d="M16.1113281,13.6601562 L16.140625,14.3632812 C16.6054711,13.8164035 17.2324179,13.5429688 18.0214844,13.5429688 C18.9082076,13.5429688 19.5117171,13.8828091 19.8320312,14.5625 C20.0429698,14.257811 20.3173811,14.0117197 20.6552734,13.8242188 C20.9931658,13.6367178 21.3925758,13.5429688 21.8535156,13.5429688 C23.2441476,13.5429688 23.9511718,14.2792895 23.9746094,15.7519531 L23.9746094,20 L22.890625,20 L22.890625,15.8164062 C22.890625,15.363279 22.7871104,15.0244152 22.5800781,14.7998047 C22.3730458,14.5751942 22.0253931,14.4628906 21.5371094,14.4628906 C21.1347636,14.4628906 20.8007826,14.5830066 20.5351562,14.8232422 C20.2695299,15.0634778 20.1152346,15.3867167 20.0722656,15.7929688 L20.0722656,20 L18.9824219,20 L18.9824219,15.8457031 C18.9824219,14.9238235 18.5312545,14.4628906 17.6289062,14.4628906 C16.9179652,14.4628906 16.4316419,14.765622 16.1699219,15.3710938 L16.1699219,20 L15.0859375,20 L15.0859375,13.6601562 L16.1113281,13.6601562 Z M25.3222656,16.7714844 C25.3222656,16.1503875 25.4443347,15.5917994 25.6884766,15.0957031 C25.9326184,14.5996069 26.2724588,14.2167982 26.7080078,13.9472656 C27.1435569,13.677733 27.6406222,13.5429688 28.1992188,13.5429688 C29.0625043,13.5429688 29.7607395,13.8417939 30.2939453,14.4394531 C30.8271511,15.0371124 31.09375,15.8320263 31.09375,16.8242188 L31.09375,16.9003906 C31.09375,17.5175812 30.9755871,18.0712866 30.7392578,18.5615234 C30.5029285,19.0517603 30.1650413,19.4335924 29.7255859,19.7070312 C29.2861306,19.9804701 28.7812529,20.1171875 28.2109375,20.1171875 C27.3515582,20.1171875 26.6552761,19.8183624 26.1220703,19.2207031 C25.5888645,18.6230439 25.3222656,17.8320362 25.3222656,16.8476562 L25.3222656,16.7714844 Z M26.4121094,16.9003906 C26.4121094,17.6035191 26.5751937,18.1679666 26.9013672,18.59375 C27.2275407,19.0195334 27.6640598,19.2324219 28.2109375,19.2324219 C28.7617215,19.2324219 29.1992171,19.0166037 29.5234375,18.5849609 C29.8476579,18.1533182 30.0097656,17.548832 30.0097656,16.7714844 C30.0097656,16.0761684 29.8447282,15.5126975 29.5146484,15.0810547 C29.1845687,14.6494119 28.7460965,14.4335938 28.1992188,14.4335938 C27.6640598,14.4335938 27.2324235,14.6464822 26.9042969,15.0722656 C26.5761702,15.498049 26.4121094,16.1074179 26.4121094,16.9003906 L26.4121094,16.9003906 Z M32.1894531,16.7773438 C32.1894531,15.8046826 32.4199196,15.0224639 32.8808594,14.4306641 C33.3417992,13.8388642 33.9453088,13.5429688 34.6914062,13.5429688 C35.4335975,13.5429688 36.0214822,13.7968725 36.4550781,14.3046875 L36.4550781,11 L37.5390625,11 L37.5390625,20 L36.5429688,20 L36.4902344,19.3203125 C36.0566385,19.8515652 35.4531289,20.1171875 34.6796875,20.1171875 C33.9453088,20.1171875 33.346682,19.8164093 32.8837891,19.2148438 C32.4208961,18.6132782 32.1894531,17.8281298 32.1894531,16.859375 L32.1894531,16.7773438 Z M33.2734375,16.9003906 C33.2734375,17.6191442 33.4218735,18.1816386 33.71875,18.5878906 C34.0156265,18.9941427 34.4257786,19.1972656 34.9492188,19.1972656 C35.6367222,19.1972656 36.1386703,18.888675 36.4550781,18.2714844 L36.4550781,15.359375 C36.1308578,14.7617158 35.6328159,14.4628906 34.9609375,14.4628906 C34.4296848,14.4628906 34.0156265,14.6679667 33.71875,15.078125 C33.4218735,15.4882833 33.2734375,16.0956991 33.2734375,16.9003906 L33.2734375,16.9003906 Z M43.1347656,19.3730469 C42.7128885,19.8691431 42.0937541,20.1171875 41.2773438,20.1171875 C40.6015591,20.1171875 40.0869158,19.9209004 39.7333984,19.5283203 C39.379881,19.1357402 39.2011719,18.5546913 39.1972656,17.7851562 L39.1972656,13.6601562 L40.28125,13.6601562 L40.28125,17.7558594 C40.28125,18.7168017 40.6718711,19.1972656 41.453125,19.1972656 C42.2812541,19.1972656 42.8320299,18.888675 43.1054688,18.2714844 L43.1054688,13.6601562 L44.1894531,13.6601562 L44.1894531,20 L43.1582031,20 L43.1347656,19.3730469 Z M47.0136719,20 L45.9296875,20 L45.9296875,11 L47.0136719,11 L47.0136719,20 Z M51.3789062,20.1171875 C50.519527,20.1171875 49.8203152,19.8349638 49.28125,19.2705078 C48.7421848,18.7060519 48.4726562,17.9511766 48.4726562,17.0058594 L48.4726562,16.8066406 C48.4726562,16.1777312 48.5927722,15.6162134 48.8330078,15.1220703 C49.0732434,14.6279272 49.4091775,14.2412123 49.8408203,13.9619141 C50.2724631,13.6826158 50.7402319,13.5429688 51.2441406,13.5429688 C52.0683635,13.5429688 52.7089821,13.8144504 53.1660156,14.3574219 C53.6230492,14.9003933 53.8515625,15.6777293 53.8515625,16.6894531 L53.8515625,17.140625 L49.5566406,17.140625 C49.5722657,17.7656281 49.7548811,18.2705059 50.1044922,18.6552734 C50.4541033,19.040041 50.8984348,19.2324219 51.4375,19.2324219 C51.8203144,19.2324219 52.1445299,19.1542977 52.4101562,18.9980469 C52.6757826,18.8417961 52.9082021,18.6347669 53.1074219,18.3769531 L53.7695312,18.8925781 C53.2382786,19.7089885 52.4414116,20.1171875 51.3789062,20.1171875 L51.3789062,20.1171875 Z M51.2441406,14.4335938 C50.8066384,14.4335938 50.4394546,14.5927718 50.1425781,14.9111328 C49.8457016,15.2294938 49.6621097,15.6757784 49.5917969,16.25 L52.7675781,16.25 L52.7675781,16.1679688 C52.736328,15.6171847 52.587892,15.1904312 52.3222656,14.8876953 C52.0566393,14.5849594 51.6972679,14.4335938 51.2441406,14.4335938 L51.2441406,14.4335938 Z M58.5566406,20 L57.4667969,20 L57.4667969,12.7753906 L55.28125,13.578125 L55.28125,12.59375 L58.3867188,11.4277344 L58.5566406,11.4277344 L58.5566406,20 Z M61.8671875,19.4316406 C61.8671875,19.2441397 61.922851,19.0878912 62.0341797,18.9628906 C62.1455084,18.83789 62.3124989,18.7753906 62.5351562,18.7753906 C62.7578136,18.7753906 62.9267572,18.83789 63.0419922,18.9628906 C63.1572271,19.0878912 63.2148438,19.2441397 63.2148438,19.4316406 C63.2148438,19.611329 63.1572271,19.7617181 63.0419922,19.8828125 C62.9267572,20.0039069 62.7578136,20.0644531 62.5351562,20.0644531 C62.3124989,20.0644531 62.1455084,20.0039069 62.0341797,19.8828125 C61.922851,19.7617181 61.8671875,19.611329 61.8671875,19.4316406 L61.8671875,19.4316406 Z M67.0761719,18.4121094 L68.5527344,13.6601562 L69.7128906,13.6601562 L67.1640625,20.9785156 C66.7695293,22.0332084 66.1425824,22.5605469 65.2832031,22.5605469 L65.078125,22.5429688 L64.6738281,22.4667969 L64.6738281,21.5878906 L64.9667969,21.6113281 C65.3339862,21.6113281 65.6201162,21.5371101 65.8251953,21.3886719 C66.0302745,21.2402336 66.1992181,20.968752 66.3320313,20.5742188 L66.5722656,19.9296875 L64.3105469,13.6601562 L65.4941406,13.6601562 L67.0761719,18.4121094 Z M74.5058594,20 C74.4433591,19.8749994 74.3925783,19.6523454 74.3535156,19.3320312 C73.8496069,19.8554714 73.2480504,20.1171875 72.5488281,20.1171875 C71.923825,20.1171875 71.4111348,19.9404315 71.0107422,19.5869141 C70.6103496,19.2333967 70.4101562,18.785159 70.4101562,18.2421875 C70.4101562,17.5820279 70.6611303,17.0693378 71.1630859,16.7041016 C71.6650416,16.3388654 72.3710892,16.15625 73.28125,16.15625 L74.3359375,16.15625 L74.3359375,15.6582031 C74.3359375,15.279295 74.2226574,14.9775402 73.9960938,14.7529297 C73.7695301,14.5283192 73.4355491,14.4160156 72.9941406,14.4160156 C72.6074199,14.4160156 72.2832044,14.5136709 72.0214844,14.7089844 C71.7597643,14.9042979 71.6289062,15.1406236 71.6289062,15.4179688 L70.5390625,15.4179688 C70.5390625,15.1015609 70.6513661,14.7958999 70.8759766,14.5009766 C71.1005871,14.2060532 71.4052715,13.9726571 71.7900391,13.8007812 C72.1748066,13.6289054 72.5976539,13.5429688 73.0585938,13.5429688 C73.7890662,13.5429688 74.3613261,13.7255841 74.7753906,14.0908203 C75.1894552,14.4560565 75.4042968,14.9589812 75.4199219,15.5996094 L75.4199219,18.5175781 C75.4199219,19.0996123 75.4941399,19.5624983 75.6425781,19.90625 L75.6425781,20 L74.5058594,20 Z M72.7070313,19.1738281 C73.0468767,19.1738281 73.3691391,19.0859384 73.6738281,18.9101562 C73.9785171,18.7343741 74.1992181,18.5058608 74.3359375,18.2246094 L74.3359375,16.9238281 L73.4863281,16.9238281 C72.1581965,16.9238281 71.4941406,17.3124961 71.4941406,18.0898438 C71.4941406,18.4296892 71.6074207,18.6953115 71.8339844,18.8867188 C72.060548,19.078126 72.3515607,19.1738281 72.7070313,19.1738281 L72.7070313,19.1738281 Z M78.1386719,13.6601562 L78.1679688,14.3632812 C78.6328148,13.8164035 79.2597617,13.5429688 80.0488281,13.5429688 C80.9355513,13.5429688 81.5390609,13.8828091 81.859375,14.5625 C82.0703136,14.257811 82.3447249,14.0117197 82.6826172,13.8242188 C83.0205095,13.6367178 83.4199196,13.5429688 83.8808594,13.5429688 C85.2714913,13.5429688 85.9785155,14.2792895 86.0019531,15.7519531 L86.0019531,20 L84.9179688,20 L84.9179688,15.8164062 C84.9179688,15.363279 84.8144542,15.0244152 84.6074219,14.7998047 C84.4003896,14.5751942 84.0527368,14.4628906 83.5644531,14.4628906 C83.1621074,14.4628906 82.8281263,14.5830066 82.5625,14.8232422 C82.2968737,15.0634778 82.1425783,15.3867167 82.0996094,15.7929688 L82.0996094,20 L81.0097656,20 L81.0097656,15.8457031 C81.0097656,14.9238235 80.5585983,14.4628906 79.65625,14.4628906 C78.9453089,14.4628906 78.4589857,14.765622 78.1972656,15.3710938 L78.1972656,20 L77.1132812,20 L77.1132812,13.6601562 L78.1386719,13.6601562 Z M88.8144531,20 L87.7304688,20 L87.7304688,11 L88.8144531,11 L88.8144531,20 Z" id="module1.yaml" fill="#212121"></path>
            </g>
            <g id="Group-2" transform="translate(258.000000, 100.000000)">
                <use id="Rectangle-1765" stroke="#E0E0E0" mask="url(#mask-8)" stroke-width="2" fill="#FFFFFF" xlink:href="#path-7"></use>
                <path d="M24.8583984,18.3183594 C24.8583984,18.0253892 24.748048,17.7978524 24.5273438,17.6357422 C24.3066395,17.473632 23.9218777,17.333985 23.3730469,17.2167969 C22.824216,17.0996088 22.3886735,16.9589852 22.0664062,16.7949219 C21.744139,16.6308586 21.5058601,16.435548 21.3515625,16.2089844 C21.1972649,15.9824207 21.1201172,15.7128922 21.1201172,15.4003906 C21.1201172,14.8808568 21.3398416,14.441408 21.7792969,14.0820312 C22.2187522,13.7226545 22.78027,13.5429688 23.4638672,13.5429688 C24.1826208,13.5429688 24.7656228,13.7285138 25.2128906,14.0996094 C25.6601585,14.470705 25.8837891,14.9453096 25.8837891,15.5234375 L24.7939453,15.5234375 C24.7939453,15.226561 24.66797,14.9707042 24.4160156,14.7558594 C24.1640612,14.5410146 23.8466816,14.4335938 23.4638672,14.4335938 C23.069334,14.4335938 22.7607433,14.5195304 22.5380859,14.6914062 C22.3154286,14.8632821 22.2041016,15.0878892 22.2041016,15.3652344 C22.2041016,15.6269544 22.3076162,15.8242181 22.5146484,15.9570312 C22.7216807,16.0898444 23.0957004,16.2167963 23.6367188,16.3378906 C24.1777371,16.458985 24.6162093,16.6035148 24.9521484,16.7714844 C25.2880876,16.939454 25.5371086,17.1416004 25.6992188,17.3779297 C25.8613289,17.614259 25.9423828,17.9023421 25.9423828,18.2421875 C25.9423828,18.8085966 25.7158226,19.2626936 25.2626953,19.6044922 C24.809568,19.9462908 24.2216833,20.1171875 23.4990234,20.1171875 C22.9912084,20.1171875 22.5419941,20.0273446 22.1513672,19.8476562 C21.7607402,19.6679679 21.4550792,19.4169938 21.234375,19.0947266 C21.0136708,18.7724593 20.9033203,18.42383 20.9033203,18.0488281 L21.9873047,18.0488281 C22.006836,18.4121112 22.1523424,18.7001942 22.4238281,18.9130859 C22.6953139,19.1259776 23.0537087,19.2324219 23.4990234,19.2324219 C23.9091817,19.2324219 24.23828,19.1494149 24.4863281,18.9833984 C24.7343762,18.817382 24.8583984,18.5957045 24.8583984,18.3183594 L24.8583984,18.3183594 Z M27.0673828,16.7714844 C27.0673828,16.1503875 27.1894519,15.5917994 27.4335938,15.0957031 C27.6777356,14.5996069 28.0175759,14.2167982 28.453125,13.9472656 C28.8886741,13.677733 29.3857394,13.5429688 29.9443359,13.5429688 C30.8076215,13.5429688 31.5058567,13.8417939 32.0390625,14.4394531 C32.5722683,15.0371124 32.8388672,15.8320263 32.8388672,16.8242188 L32.8388672,16.9003906 C32.8388672,17.5175812 32.7207043,18.0712866 32.484375,18.5615234 C32.2480457,19.0517603 31.9101584,19.4335924 31.4707031,19.7070312 C31.0312478,19.9804701 30.52637,20.1171875 29.9560547,20.1171875 C29.0966754,20.1171875 28.4003933,19.8183624 27.8671875,19.2207031 C27.3339817,18.6230439 27.0673828,17.8320362 27.0673828,16.8476562 L27.0673828,16.7714844 Z M28.1572266,16.9003906 C28.1572266,17.6035191 28.3203109,18.1679666 28.6464844,18.59375 C28.9726579,19.0195334 29.409177,19.2324219 29.9560547,19.2324219 C30.5068387,19.2324219 30.9443343,19.0166037 31.2685547,18.5849609 C31.5927751,18.1533182 31.7548828,17.548832 31.7548828,16.7714844 C31.7548828,16.0761684 31.5898454,15.5126975 31.2597656,15.0810547 C30.9296858,14.6494119 30.4912137,14.4335938 29.9443359,14.4335938 C29.409177,14.4335938 28.9775407,14.6464822 28.6494141,15.0722656 C28.3212874,15.498049 28.1572266,16.1074179 28.1572266,16.9003906 L28.1572266,16.9003906 Z M38.1123047,19.3730469 C37.6904276,19.8691431 37.0712931,20.1171875 36.2548828,20.1171875 C35.5790982,20.1171875 35.0644549,19.9209004 34.7109375,19.5283203 C34.3574201,19.1357402 34.178711,18.5546913 34.1748047,17.7851562 L34.1748047,13.6601562 L35.2587891,13.6601562 L35.2587891,17.7558594 C35.2587891,18.7168017 35.6494102,19.1972656 36.4306641,19.1972656 C37.2587932,19.1972656 37.8095689,18.888675 38.0830078,18.2714844 L38.0830078,13.6601562 L39.1669922,13.6601562 L39.1669922,20 L38.1357422,20 L38.1123047,19.3730469 Z M43.8779297,14.6328125 C43.7138664,14.6054686 43.5361338,14.5917969 43.3447266,14.5917969 C42.6337855,14.5917969 42.1513685,14.8945282 41.8974609,15.5 L41.8974609,20 L40.8134766,20 L40.8134766,13.6601562 L41.8681641,13.6601562 L41.8857422,14.3925781 C42.2412127,13.826169 42.7451139,13.5429688 43.3974609,13.5429688 C43.6083995,13.5429688 43.7685541,13.5703122 43.8779297,13.625 L43.8779297,14.6328125 Z M47.3056641,19.2324219 C47.6923847,19.2324219 48.030272,19.1152355 48.3193359,18.8808594 C48.6083999,18.6464832 48.7685545,18.3535174 48.7998047,18.0019531 L49.8251953,18.0019531 C49.805664,18.3652362 49.6806652,18.7109359 49.4501953,19.0390625 C49.2197254,19.3671891 48.9121113,19.6289053 48.5273438,19.8242188 C48.1425762,20.0195322 47.7353537,20.1171875 47.3056641,20.1171875 C46.4423785,20.1171875 45.7558619,19.8291044 45.2460938,19.2529297 C44.7363256,18.6767549 44.4814453,17.8886769 44.4814453,16.8886719 L44.4814453,16.7070312 C44.4814453,16.0898407 44.5947254,15.541018 44.8212891,15.0605469 C45.0478527,14.5800757 45.3730448,14.2070326 45.796875,13.9414062 C46.2207052,13.6757799 46.7216768,13.5429688 47.2998047,13.5429688 C48.0107457,13.5429688 48.6015601,13.7558572 49.0722656,14.1816406 C49.5429711,14.607424 49.7939452,15.1601529 49.8251953,15.8398438 L48.7998047,15.8398438 C48.7685545,15.4296854 48.6132826,15.0927748 48.3339844,14.8291016 C48.0546861,14.5654284 47.709963,14.4335938 47.2998047,14.4335938 C46.7490207,14.4335938 46.3222671,14.631834 46.0195312,15.0283203 C45.7167954,15.4248067 45.5654297,15.9980431 45.5654297,16.7480469 L45.5654297,16.953125 C45.5654297,17.6835974 45.7158188,18.2460918 46.0166016,18.640625 C46.3173843,19.0351582 46.7470675,19.2324219 47.3056641,19.2324219 L47.3056641,19.2324219 Z M53.6748047,20.1171875 C52.8154254,20.1171875 52.1162136,19.8349638 51.5771484,19.2705078 C51.0380832,18.7060519 50.7685547,17.9511766 50.7685547,17.0058594 L50.7685547,16.8066406 C50.7685547,16.1777312 50.8886707,15.6162134 51.1289062,15.1220703 C51.3691418,14.6279272 51.705076,14.2412123 52.1367188,13.9619141 C52.5683615,13.6826158 53.0361303,13.5429688 53.5400391,13.5429688 C54.3642619,13.5429688 55.0048805,13.8144504 55.4619141,14.3574219 C55.9189476,14.9003933 56.1474609,15.6777293 56.1474609,16.6894531 L56.1474609,17.140625 L51.8525391,17.140625 C51.8681641,17.7656281 52.0507795,18.2705059 52.4003906,18.6552734 C52.7500017,19.040041 53.1943332,19.2324219 53.7333984,19.2324219 C54.1162129,19.2324219 54.4404284,19.1542977 54.7060547,18.9980469 C54.971681,18.8417961 55.2041006,18.6347669 55.4033203,18.3769531 L56.0654297,18.8925781 C55.534177,19.7089885 54.73731,20.1171875 53.6748047,20.1171875 L53.6748047,20.1171875 Z M53.5400391,14.4335938 C53.1025369,14.4335938 52.735353,14.5927718 52.4384766,14.9111328 C52.1416001,15.2294938 51.9580082,15.6757784 51.8876953,16.25 L55.0634766,16.25 L55.0634766,16.1679688 C55.0322264,15.6171847 54.8837904,15.1904312 54.6181641,14.8876953 C54.3525377,14.5849594 53.9931663,14.4335938 53.5400391,14.4335938 L53.5400391,14.4335938 Z M60.7353516,20 L60.7353516,14.4980469 L59.7333984,14.4980469 L59.7333984,13.6601562 L60.7353516,13.6601562 L60.7353516,13.1210938 C60.7353516,12.414059 60.937498,11.8632832 61.3417969,11.46875 C61.7460958,11.0742168 62.3173791,10.8769531 63.0556641,10.8769531 C63.4931662,10.8769531 64.0458951,10.9960926 64.7138672,11.234375 L64.5322266,12.1484375 C64.0439429,11.953124 63.5791038,11.8554688 63.1376953,11.8554688 C62.6728492,11.8554688 62.3378917,11.9599599 62.1328125,12.1689453 C61.9277333,12.3779307 61.8251953,12.6914042 61.8251953,13.109375 L61.8251953,13.6601562 L63.1201172,13.6601562 L63.1201172,14.4980469 L61.8251953,14.4980469 L61.8251953,20 L60.7353516,20 Z M65.2529297,20 L64.1630859,20 L64.1630859,13.6601562 L65.2529297,13.6601562 L65.2529297,20 Z M68.1943359,20 L67.1103516,20 L67.1103516,11 L68.1943359,11 L68.1943359,20 Z M72.5595703,20.1171875 C71.700191,20.1171875 71.0009793,19.8349638 70.4619141,19.2705078 C69.9228489,18.7060519 69.6533203,17.9511766 69.6533203,17.0058594 L69.6533203,16.8066406 C69.6533203,16.1777312 69.7734363,15.6162134 70.0136719,15.1220703 C70.2539075,14.6279272 70.5898416,14.2412123 71.0214844,13.9619141 C71.4531272,13.6826158 71.9208959,13.5429688 72.4248047,13.5429688 C73.2490276,13.5429688 73.8896462,13.8144504 74.3466797,14.3574219 C74.8037132,14.9003933 75.0322266,15.6777293 75.0322266,16.6894531 L75.0322266,17.140625 L70.7373047,17.140625 C70.7529298,17.7656281 70.9355451,18.2705059 71.2851562,18.6552734 C71.6347674,19.040041 72.0790989,19.2324219 72.6181641,19.2324219 C73.0009785,19.2324219 73.325194,19.1542977 73.5908203,18.9980469 C73.8564466,18.8417961 74.0888662,18.6347669 74.2880859,18.3769531 L74.9501953,18.8925781 C74.4189427,19.7089885 73.6220756,20.1171875 72.5595703,20.1171875 L72.5595703,20.1171875 Z M72.4248047,14.4335938 C71.9873025,14.4335938 71.6201187,14.5927718 71.3232422,14.9111328 C71.0263657,15.2294938 70.8427738,15.6757784 70.7724609,16.25 L73.9482422,16.25 L73.9482422,16.1679688 C73.916992,15.6171847 73.768556,15.1904312 73.5029297,14.8876953 C73.2373034,14.5849594 72.877932,14.4335938 72.4248047,14.4335938 L72.4248047,14.4335938 Z M79.9775391,18.3183594 C79.9775391,18.0253892 79.8671886,17.7978524 79.6464844,17.6357422 C79.4257801,17.473632 79.0410184,17.333985 78.4921875,17.2167969 C77.9433566,17.0996088 77.5078141,16.9589852 77.1855469,16.7949219 C76.8632796,16.6308586 76.6250008,16.435548 76.4707031,16.2089844 C76.3164055,15.9824207 76.2392578,15.7128922 76.2392578,15.4003906 C76.2392578,14.8808568 76.4589822,14.441408 76.8984375,14.0820312 C77.3378928,13.7226545 77.8994106,13.5429688 78.5830078,13.5429688 C79.3017614,13.5429688 79.8847634,13.7285138 80.3320312,14.0996094 C80.7792991,14.470705 81.0029297,14.9453096 81.0029297,15.5234375 L79.9130859,15.5234375 C79.9130859,15.226561 79.7871106,14.9707042 79.5351562,14.7558594 C79.2832019,14.5410146 78.9658222,14.4335938 78.5830078,14.4335938 C78.1884746,14.4335938 77.8798839,14.5195304 77.6572266,14.6914062 C77.4345692,14.8632821 77.3232422,15.0878892 77.3232422,15.3652344 C77.3232422,15.6269544 77.4267568,15.8242181 77.6337891,15.9570312 C77.8408213,16.0898444 78.214841,16.2167963 78.7558594,16.3378906 C79.2968777,16.458985 79.7353499,16.6035148 80.0712891,16.7714844 C80.4072282,16.939454 80.6562492,17.1416004 80.8183594,17.3779297 C80.9804696,17.614259 81.0615234,17.9023421 81.0615234,18.2421875 C81.0615234,18.8085966 80.8349632,19.2626936 80.3818359,19.6044922 C79.9287087,19.9462908 79.3408239,20.1171875 78.6181641,20.1171875 C78.110349,20.1171875 77.6611348,20.0273446 77.2705078,19.8476562 C76.8798809,19.6679679 76.5742199,19.4169938 76.3535156,19.0947266 C76.1328114,18.7724593 76.0224609,18.42383 76.0224609,18.0488281 L77.1064453,18.0488281 C77.1259767,18.4121112 77.271483,18.7001942 77.5429688,18.9130859 C77.8144545,19.1259776 78.1728493,19.2324219 78.6181641,19.2324219 C79.0283224,19.2324219 79.3574206,19.1494149 79.6054688,18.9833984 C79.8535169,18.817382 79.9775391,18.5957045 79.9775391,18.3183594 L79.9775391,18.3183594 Z" id="source-files" fill="#212121"></path>
            </g>
            <g id="Group-2" transform="translate(142.000000, 100.000000)">
                <use id="Rectangle-1765" stroke="#E0E0E0" mask="url(#mask-10)" stroke-width="2" fill="#FFFFFF" xlink:href="#path-9"></use>
                <path d="M14.5566406,16.7773438 C14.5566406,15.8046826 14.7871071,15.0224639 15.2480469,14.4306641 C15.7089867,13.8388642 16.3124963,13.5429688 17.0585938,13.5429688 C17.800785,13.5429688 18.3886697,13.7968725 18.8222656,14.3046875 L18.8222656,11 L19.90625,11 L19.90625,20 L18.9101562,20 L18.8574219,19.3203125 C18.423826,19.8515652 17.8203164,20.1171875 17.046875,20.1171875 C16.3124963,20.1171875 15.7138695,19.8164093 15.2509766,19.2148438 C14.7880836,18.6132782 14.5566406,17.8281298 14.5566406,16.859375 L14.5566406,16.7773438 Z M15.640625,16.9003906 C15.640625,17.6191442 15.789061,18.1816386 16.0859375,18.5878906 C16.382814,18.9941427 16.7929661,19.1972656 17.3164062,19.1972656 C18.0039097,19.1972656 18.5058578,18.888675 18.8222656,18.2714844 L18.8222656,15.359375 C18.4980453,14.7617158 18.0000034,14.4628906 17.328125,14.4628906 C16.7968723,14.4628906 16.382814,14.6679667 16.0859375,15.078125 C15.789061,15.4882833 15.640625,16.0956991 15.640625,16.9003906 L15.640625,16.9003906 Z M22.765625,20 L21.6816406,20 L21.6816406,13.6601562 L22.765625,13.6601562 L22.765625,20 Z M21.59375,11.9785156 C21.59375,11.8027335 21.6474604,11.6542975 21.7548828,11.5332031 C21.8623052,11.4121088 22.0214833,11.3515625 22.2324219,11.3515625 C22.4433604,11.3515625 22.6035151,11.4121088 22.7128906,11.5332031 C22.8222662,11.6542975 22.8769531,11.8027335 22.8769531,11.9785156 C22.8769531,12.1542978 22.8222662,12.3007807 22.7128906,12.4179688 C22.6035151,12.5351568 22.4433604,12.59375 22.2324219,12.59375 C22.0214833,12.59375 21.8623052,12.5351568 21.7548828,12.4179688 C21.6474604,12.3007807 21.59375,12.1542978 21.59375,11.9785156 L21.59375,11.9785156 Z M28.1914062,18.3183594 C28.1914062,18.0253892 28.0810558,17.7978524 27.8603516,17.6357422 C27.6396473,17.473632 27.2548856,17.333985 26.7060547,17.2167969 C26.1572238,17.0996088 25.7216813,16.9589852 25.3994141,16.7949219 C25.0771468,16.6308586 24.838868,16.435548 24.6845703,16.2089844 C24.5302727,15.9824207 24.453125,15.7128922 24.453125,15.4003906 C24.453125,14.8808568 24.6728494,14.441408 25.1123047,14.0820312 C25.55176,13.7226545 26.1132778,13.5429688 26.796875,13.5429688 C27.5156286,13.5429688 28.0986306,13.7285138 28.5458984,14.0996094 C28.9931663,14.470705 29.2167969,14.9453096 29.2167969,15.5234375 L28.1269531,15.5234375 C28.1269531,15.226561 28.0009778,14.9707042 27.7490234,14.7558594 C27.4970691,14.5410146 27.1796894,14.4335938 26.796875,14.4335938 C26.4023418,14.4335938 26.0937511,14.5195304 25.8710938,14.6914062 C25.6484364,14.8632821 25.5371094,15.0878892 25.5371094,15.3652344 C25.5371094,15.6269544 25.640624,15.8242181 25.8476562,15.9570312 C26.0546885,16.0898444 26.4287082,16.2167963 26.9697266,16.3378906 C27.5107449,16.458985 27.9492171,16.6035148 28.2851562,16.7714844 C28.6210954,16.939454 28.8701164,17.1416004 29.0322266,17.3779297 C29.1943367,17.614259 29.2753906,17.9023421 29.2753906,18.2421875 C29.2753906,18.8085966 29.0488304,19.2626936 28.5957031,19.6044922 C28.1425759,19.9462908 27.5546911,20.1171875 26.8320312,20.1171875 C26.3242162,20.1171875 25.875002,20.0273446 25.484375,19.8476562 C25.093748,19.6679679 24.788087,19.4169938 24.5673828,19.0947266 C24.3466786,18.7724593 24.2363281,18.42383 24.2363281,18.0488281 L25.3203125,18.0488281 C25.3398438,18.4121112 25.4853502,18.7001942 25.7568359,18.9130859 C26.0283217,19.1259776 26.3867165,19.2324219 26.8320312,19.2324219 C27.2421896,19.2324219 27.5712878,19.1494149 27.8193359,18.9833984 C28.0673841,18.817382 28.1914062,18.5957045 28.1914062,18.3183594 L28.1914062,18.3183594 Z M36.0429688,16.9003906 C36.0429688,17.8652392 35.8222678,18.6425752 35.3808594,19.2324219 C34.9394509,19.8222686 34.3418006,20.1171875 33.5878906,20.1171875 C32.8183555,20.1171875 32.2128928,19.8730493 31.7714844,19.3847656 L31.7714844,22.4375 L30.6875,22.4375 L30.6875,13.6601562 L31.6777344,13.6601562 L31.7304688,14.3632812 C32.1718772,13.8164035 32.7851523,13.5429688 33.5703125,13.5429688 C34.3320351,13.5429688 34.9345681,13.8300753 35.3779297,14.4042969 C35.8212913,14.9785185 36.0429688,15.7773386 36.0429688,16.8007812 L36.0429688,16.9003906 Z M34.9589844,16.7773438 C34.9589844,16.0624964 34.8066421,15.4980489 34.5019531,15.0839844 C34.1972641,14.6699198 33.7792995,14.4628906 33.2480469,14.4628906 C32.5917936,14.4628906 32.099611,14.7539033 31.7714844,15.3359375 L31.7714844,18.3652344 C32.0957047,18.9433623 32.5917935,19.2324219 33.2597656,19.2324219 C33.7792995,19.2324219 34.1923813,19.0263692 34.4990234,18.6142578 C34.8056656,18.2021464 34.9589844,17.5898478 34.9589844,16.7773438 L34.9589844,16.7773438 Z M41.3339844,20 C41.2714841,19.8749994 41.2207033,19.6523454 41.1816406,19.3320312 C40.6777319,19.8554714 40.0761754,20.1171875 39.3769531,20.1171875 C38.75195,20.1171875 38.2392598,19.9404315 37.8388672,19.5869141 C37.4384746,19.2333967 37.2382812,18.785159 37.2382812,18.2421875 C37.2382812,17.5820279 37.4892553,17.0693378 37.9912109,16.7041016 C38.4931666,16.3388654 39.1992142,16.15625 40.109375,16.15625 L41.1640625,16.15625 L41.1640625,15.6582031 C41.1640625,15.279295 41.0507824,14.9775402 40.8242188,14.7529297 C40.5976551,14.5283192 40.2636741,14.4160156 39.8222656,14.4160156 C39.4355449,14.4160156 39.1113294,14.5136709 38.8496094,14.7089844 C38.5878893,14.9042979 38.4570312,15.1406236 38.4570312,15.4179688 L37.3671875,15.4179688 C37.3671875,15.1015609 37.4794911,14.7958999 37.7041016,14.5009766 C37.9287121,14.2060532 38.2333965,13.9726571 38.6181641,13.8007812 C39.0029316,13.6289054 39.4257789,13.5429688 39.8867188,13.5429688 C40.6171912,13.5429688 41.1894511,13.7255841 41.6035156,14.0908203 C42.0175802,14.4560565 42.2324218,14.9589812 42.2480469,15.5996094 L42.2480469,18.5175781 C42.2480469,19.0996123 42.3222649,19.5624983 42.4707031,19.90625 L42.4707031,20 L41.3339844,20 Z M39.5351562,19.1738281 C39.8750017,19.1738281 40.1972641,19.0859384 40.5019531,18.9101562 C40.8066421,18.7343741 41.0273431,18.5058608 41.1640625,18.2246094 L41.1640625,16.9238281 L40.3144531,16.9238281 C38.9863215,16.9238281 38.3222656,17.3124961 38.3222656,18.0898438 C38.3222656,18.4296892 38.4355457,18.6953115 38.6621094,18.8867188 C38.888673,19.078126 39.1796857,19.1738281 39.5351562,19.1738281 L39.5351562,19.1738281 Z M45.4179688,12.125 L45.4179688,13.6601562 L46.6015625,13.6601562 L46.6015625,14.4980469 L45.4179688,14.4980469 L45.4179688,18.4296875 C45.4179688,18.683595 45.4707026,18.8740228 45.5761719,19.0009766 C45.6816412,19.1279303 45.8613269,19.1914062 46.1152344,19.1914062 C46.240235,19.1914062 46.4121083,19.167969 46.6308594,19.1210938 L46.6308594,20 C46.3457017,20.0781254 46.0683607,20.1171875 45.7988281,20.1171875 C45.3144507,20.1171875 44.94922,19.9707046 44.703125,19.6777344 C44.45703,19.3847642 44.3339844,18.9687527 44.3339844,18.4296875 L44.3339844,14.4980469 L43.1796875,14.4980469 L43.1796875,13.6601562 L44.3339844,13.6601562 L44.3339844,12.125 L45.4179688,12.125 Z M50.4101562,19.2324219 C50.7968769,19.2324219 51.1347642,19.1152355 51.4238281,18.8808594 C51.7128921,18.6464832 51.8730467,18.3535174 51.9042969,18.0019531 L52.9296875,18.0019531 C52.9101562,18.3652362 52.7851574,18.7109359 52.5546875,19.0390625 C52.3242176,19.3671891 52.0166035,19.6289053 51.6318359,19.8242188 C51.2470684,20.0195322 50.8398459,20.1171875 50.4101562,20.1171875 C49.5468707,20.1171875 48.8603541,19.8291044 48.3505859,19.2529297 C47.8408178,18.6767549 47.5859375,17.8886769 47.5859375,16.8886719 L47.5859375,16.7070312 C47.5859375,16.0898407 47.6992176,15.541018 47.9257812,15.0605469 C48.1523449,14.5800757 48.4775369,14.2070326 48.9013672,13.9414062 C49.3251974,13.6757799 49.826169,13.5429688 50.4042969,13.5429688 C51.1152379,13.5429688 51.7060523,13.7558572 52.1767578,14.1816406 C52.6474633,14.607424 52.8984373,15.1601529 52.9296875,15.8398438 L51.9042969,15.8398438 C51.8730467,15.4296854 51.7177748,15.0927748 51.4384766,14.8291016 C51.1591783,14.5654284 50.8144552,14.4335938 50.4042969,14.4335938 C49.8535129,14.4335938 49.4267593,14.631834 49.1240234,15.0283203 C48.8212875,15.4248067 48.6699219,15.9980431 48.6699219,16.7480469 L48.6699219,16.953125 C48.6699219,17.6835974 48.820311,18.2460918 49.1210938,18.640625 C49.4218765,19.0351582 49.8515597,19.2324219 50.4101562,19.2324219 L50.4101562,19.2324219 Z M55.2324219,14.4277344 C55.712893,13.8378877 56.3378868,13.5429688 57.1074219,13.5429688 C58.4472723,13.5429688 59.1230468,14.2988206 59.1347656,15.8105469 L59.1347656,20 L58.0507812,20 L58.0507812,15.8046875 C58.046875,15.347654 57.9423838,15.0097667 57.7373047,14.7910156 C57.5322255,14.5722645 57.2128928,14.4628906 56.7792969,14.4628906 C56.4277326,14.4628906 56.119142,14.5566397 55.8535156,14.7441406 C55.5878893,14.9316416 55.3808601,15.1777329 55.2324219,15.4824219 L55.2324219,20 L54.1484375,20 L54.1484375,11 L55.2324219,11 L55.2324219,14.4277344 Z M60.78125,19.4316406 C60.78125,19.2441397 60.8369135,19.0878912 60.9482422,18.9628906 C61.0595709,18.83789 61.2265614,18.7753906 61.4492188,18.7753906 C61.6718761,18.7753906 61.8408197,18.83789 61.9560547,18.9628906 C62.0712896,19.0878912 62.1289062,19.2441397 62.1289062,19.4316406 C62.1289062,19.611329 62.0712896,19.7617181 61.9560547,19.8828125 C61.8408197,20.0039069 61.6718761,20.0644531 61.4492188,20.0644531 C61.2265614,20.0644531 61.0595709,20.0039069 60.9482422,19.8828125 C60.8369135,19.7617181 60.78125,19.611329 60.78125,19.4316406 L60.78125,19.4316406 Z M65.9902344,18.4121094 L67.4667969,13.6601562 L68.6269531,13.6601562 L66.078125,20.9785156 C65.6835918,22.0332084 65.0566449,22.5605469 64.1972656,22.5605469 L63.9921875,22.5429688 L63.5878906,22.4667969 L63.5878906,21.5878906 L63.8808594,21.6113281 C64.2480487,21.6113281 64.5341787,21.5371101 64.7392578,21.3886719 C64.944337,21.2402336 65.1132806,20.968752 65.2460938,20.5742188 L65.4863281,19.9296875 L63.2246094,13.6601562 L64.4082031,13.6601562 L65.9902344,18.4121094 Z M73.4199219,20 C73.3574216,19.8749994 73.3066408,19.6523454 73.2675781,19.3320312 C72.7636694,19.8554714 72.1621129,20.1171875 71.4628906,20.1171875 C70.8378875,20.1171875 70.3251973,19.9404315 69.9248047,19.5869141 C69.5244121,19.2333967 69.3242188,18.785159 69.3242188,18.2421875 C69.3242188,17.5820279 69.5751928,17.0693378 70.0771484,16.7041016 C70.5791041,16.3388654 71.2851517,16.15625 72.1953125,16.15625 L73.25,16.15625 L73.25,15.6582031 C73.25,15.279295 73.1367199,14.9775402 72.9101562,14.7529297 C72.6835926,14.5283192 72.3496116,14.4160156 71.9082031,14.4160156 C71.5214824,14.4160156 71.1972669,14.5136709 70.9355469,14.7089844 C70.6738268,14.9042979 70.5429688,15.1406236 70.5429688,15.4179688 L69.453125,15.4179688 C69.453125,15.1015609 69.5654286,14.7958999 69.7900391,14.5009766 C70.0146496,14.2060532 70.319334,13.9726571 70.7041016,13.8007812 C71.0888691,13.6289054 71.5117164,13.5429688 71.9726562,13.5429688 C72.7031287,13.5429688 73.2753886,13.7255841 73.6894531,14.0908203 C74.1035177,14.4560565 74.3183593,14.9589812 74.3339844,15.5996094 L74.3339844,18.5175781 C74.3339844,19.0996123 74.4082024,19.5624983 74.5566406,19.90625 L74.5566406,20 L73.4199219,20 Z M71.6210938,19.1738281 C71.9609392,19.1738281 72.2832016,19.0859384 72.5878906,18.9101562 C72.8925796,18.7343741 73.1132806,18.5058608 73.25,18.2246094 L73.25,16.9238281 L72.4003906,16.9238281 C71.072259,16.9238281 70.4082031,17.3124961 70.4082031,18.0898438 C70.4082031,18.4296892 70.5214832,18.6953115 70.7480469,18.8867188 C70.9746105,19.078126 71.2656232,19.1738281 71.6210938,19.1738281 L71.6210938,19.1738281 Z M77.0527344,13.6601562 L77.0820312,14.3632812 C77.5468773,13.8164035 78.1738242,13.5429688 78.9628906,13.5429688 C79.8496138,13.5429688 80.4531234,13.8828091 80.7734375,14.5625 C80.9843761,14.257811 81.2587874,14.0117197 81.5966797,13.8242188 C81.934572,13.6367178 82.3339821,13.5429688 82.7949219,13.5429688 C84.1855538,13.5429688 84.892578,14.2792895 84.9160156,15.7519531 L84.9160156,20 L83.8320312,20 L83.8320312,15.8164062 C83.8320312,15.363279 83.7285167,15.0244152 83.5214844,14.7998047 C83.3144521,14.5751942 82.9667993,14.4628906 82.4785156,14.4628906 C82.0761699,14.4628906 81.7421888,14.5830066 81.4765625,14.8232422 C81.2109362,15.0634778 81.0566408,15.3867167 81.0136719,15.7929688 L81.0136719,20 L79.9238281,20 L79.9238281,15.8457031 C79.9238281,14.9238235 79.4726608,14.4628906 78.5703125,14.4628906 C77.8593714,14.4628906 77.3730482,14.765622 77.1113281,15.3710938 L77.1113281,20 L76.0273438,20 L76.0273438,13.6601562 L77.0527344,13.6601562 Z M87.7285156,20 L86.6445312,20 L86.6445312,11 L87.7285156,11 L87.7285156,20 Z" id="dispatch.yaml" fill="#212121"></path>
            </g>
            <polygon id="Fill-41" fill="#616161" points="538.200012 92.602 538.932012 91.92 542.289012 95.532 545.646012 91.92 546.379012 92.602 542.289012 97"></polygon>
            <polygon id="Fill-41" fill="#616161" points="421.9102 92.602 422.6422 91.92 425.9992 95.532 429.3562 91.92 430.0892 92.602 425.9992 97"></polygon>
            <polygon id="Fill-41" fill="#616161" points="305.9102 92.602 306.6422 91.92 309.9992 95.532 313.3562 91.92 314.0892 92.602 309.9992 97"></polygon>
            <polygon id="Fill-41" fill="#616161" points="189.9102 92.602 190.6422 91.92 193.9992 95.532 197.3562 91.92 198.0892 92.602 193.9992 97"></polygon>
        </g>
    </g>
</svg>